<svg xmlns="http://www.w3.org/2000/svg" xmlns:xlink="http://www.w3.org/1999/xlink" version="1.1" x="0px" y="0px" viewBox="0 0 100 125" enable-background="new 0 0 100 100" xml:space="preserve"><path d="M1,79.4l0-0.3l0,2c0,0.6,0.3,1.2,1,1.8l17.4,14.6c1.8,1.5,5.6,2,8.5,1l40.4-14.2c1.8-0.6,2.8-1.7,2.8-2.8l0-1.7  c0,1.1-1,2.2-2.8,2.8L27.8,96.8c-2.8,1-6.6,0.6-8.5-1L2,81.2C1.3,80.7,1,80.1,1,79.4 M1,75.7l0-0.9l0,2.7L1,78c0,0.6,0.3,1.2,1,1.8  l17.4,14.6c1.8,1.5,5.6,2,8.5,1l40.4-14.2c1.8-0.6,2.8-1.7,2.8-2.7l0,1.2l0-3.5c0,1.1-1,2.1-2.8,2.8L27.8,93c-2.8,1-6.6,0.6-8.5-1  L2,77.4C1.3,76.9,1,76.3,1,75.7 M1,71.9l0-1.5l0,3.1c0,0,0,0,0,0l0,0.7c0,0.6,0.3,1.2,1,1.8l17.4,14.6c1.8,1.5,5.6,2,8.5,1  l40.4-14.2c1.8-0.6,2.8-1.7,2.8-2.7l0,0.5l0-2.8c0,1.1-1,2.1-2.8,2.7L27.8,89.2c-2.8,1-6.6,0.6-8.5-1L2,73.6C1.3,73.1,1,72.5,1,71.9   M1,68.1l0-2.1l0,3.7c0,0,0,0,0,0l0,0.7c0,0.6,0.3,1.2,1,1.8l17.4,14.6c1.8,1.5,5.6,2,8.5,1l40.4-14.2c1.8-0.6,2.8-1.7,2.8-2.7  l0-2.3c0,1.1-1,2.1-2.8,2.7L27.8,85.4c-2.8,1-6.6,0.6-8.5-1L2,69.8C1.3,69.3,1,68.7,1,68.1 M19.2,80.7L1.9,66.2  c-0.3-0.3-0.6-0.6-0.9-0.9l0,0.6c0,0,0,0,0,0l0,0.7c0,0.6,0.3,1.2,1,1.8l17.4,14.6c1.8,1.5,5.6,2,8.5,1l40.4-14.2  c1.8-0.6,2.7-1.7,2.8-2.7l0-1.5c-0.7,0.9-1.7,1.7-3,2.2L27.6,81.9c-1,0.3-2,0.5-3.1,0.5C22.4,82.4,20.5,81.8,19.2,80.7 M93.1,51  c0,1.5-1.6,2.5-2.9,1.9l-5.1-2.3c-0.3-0.1-0.6-0.2-1-0.2c-0.1,0-7.3-0.2-15.4-0.9c-1.2-0.1-2.1-1.3-1.8-2.5l2.4-11  c0.2-0.7-0.1-1.5-0.7-2l-0.2-0.2c-1-0.9-2.3-1.9-3.7-1.9c-0.8,0-1.5,0.3-2.1,0.8c-3.4,3-5.6,3.6-6.8,3.6c-0.5,0-0.9-0.1-1.2-0.3  l7.4-9.5c0.3-0.3,0.6-0.6,1-0.7l5.2-1.6c0.4-0.1,0.7-0.1,1.1,0L83,27.8c0.1,0,0.2,0.1,0.3,0.1l8.6,3.9c0.7,0.3,1.2,1.1,1.2,1.9V51z   M68.8,13.6l-1.4,4.8c-0.2,0.7-0.7,1.2-1.4,1.4l-6,1.8c-0.4,0.1-0.8,0.4-1,0.7L49,35c-0.5,0.6-0.6,1.5-0.2,2.2l0.1,0.2  c0.7,1.5,3,3.9,6.8,3.9c1.3,0,2.7-0.3,4.1-0.9c1.5-0.6,3.1,0.7,2.8,2.4l-3,14.2c-0.1,0.6-0.3,0.9-1.1,0.9c-0.1,0-0.3,0-0.3,0  l-29.1-6.2c-0.4-0.1-1.1-0.2-0.9-1.3L37.5,7c0.1-0.6,0.3-0.9,1.1-0.9c0.1,0,0.3,0,0.3,0l29.1,6.2C68.3,12.4,68.9,12.5,68.8,13.6   M98.1,58.2v-26c0-1.8-1-3.4-2.7-4.2l-10.2-4.7c-0.3-0.1-0.5-0.2-0.8-0.3l-10.2-2.6c-1.1-0.3-1.8-1.5-1.5-2.6l0.9-2.9l0.1-0.2  c0.1-0.3,0.5-2.6-0.8-4.7c-0.6-0.9-1.7-2.1-3.9-2.5L39.9,1.3c-0.1,0-0.6-0.1-1.3-0.1c-3,0-5.3,1.8-6,4.8l-9.3,43.4  c0,0.2-0.4,2.1,0.4,3.9L4.6,60c-1.4,0.5-2.3,1.3-2.5,2.4c-0.2,0.8,0.2,1.7,1,2.3l17.4,14.6c0.9,0.8,2.5,1.2,4,1.2  c0.9,0,1.7-0.1,2.5-0.4l40.4-14.2c1.4-0.5,2.3-1.3,2.5-2.4c0.2-0.8-0.2-1.7-1-2.3l-4.3-3.6l0.3-1.6c0.2-1,1.2-1.7,2.2-1.6  c7,0.7,13.5,0.9,15.9,1c0.3,0,0.5,0.1,0.8,0.2l10.7,4.9c0.3,0.2,0.7,0.2,1,0.2c0.5,0,0.9-0.1,1.3-0.4C97.7,59.8,98.1,59,98.1,58.2"/><text x="0" y="115" fill="#000000" font-size="5px" font-weight="bold" font-family="'Helvetica Neue', Helvetica, Arial-Unicode, Arial, Sans-serif">Created by Daniel Solis</text><text x="0" y="120" fill="#000000" font-size="5px" font-weight="bold" font-family="'Helvetica Neue', Helvetica, Arial-Unicode, Arial, Sans-serif">from the Noun Project</text></svg>