<svg xmlns="http://www.w3.org/2000/svg" xmlns:xlink="http://www.w3.org/1999/xlink" version="1.1" x="0px" y="0px" viewBox="0 0 100 125" enable-background="new 0 0 100 100" xml:space="preserve"><g display="none"><rect x="-185.641" y="-472.841" display="inline" fill="#000000" width="1259.937" height="593.541"/></g><g><path d="M86.198,48.259c-4.853,0-8.802,3.948-8.802,8.802v23.34c0,1.366-1.112,2.477-2.477,2.477h-1.788v-2.656   c0-7.811-4.372-14.62-10.796-18.109c7.526-4.924,12.648-13.622,13.586-24.243c0.438,0.053,0.873,0.08,1.302,0.08   c6.227,0,11.292-5.066,11.292-11.293c0-6.227-5.066-11.293-11.292-11.293c-2.517,0-4.92,0.827-6.89,2.351   c-5.658-5.405-14.705-6.162-22.903-6.162l-0.603,0.005l-0.741-0.005c-8.198,0-17.245,0.757-22.903,6.162   c-1.969-1.524-4.373-2.351-6.89-2.351C10.066,15.365,5,20.431,5,26.658c0,6.656,5.809,12.03,12.595,11.213   c1.343,15.205,11.254,26.478,24.531,28.357v20.194c0,1.05,0.851,1.901,1.901,1.901h22.827c0.246,0.071,0.502,0.122,0.771,0.122   h7.293c4.435,0,8.044-3.609,8.044-8.044v-23.34c0-1.785,1.451-3.236,3.236-3.236s3.236,1.451,3.236,3.236v7.066   c0,1.537,1.246,2.783,2.783,2.783c1.537,0,2.783-1.246,2.783-2.783v-7.066C95,52.207,91.051,48.259,86.198,48.259z M11.307,26.658   c0-2.576,2.096-4.671,4.671-4.671c2.576,0,4.672,2.096,4.672,4.671s-2.096,4.671-4.672,4.671   C13.403,31.329,11.307,29.234,11.307,26.658z M77.223,21.987c2.576,0,4.671,2.096,4.671,4.671s-2.096,4.671-4.671,4.671   c-2.576,0-4.672-2.096-4.672-4.671S74.647,21.987,77.223,21.987z M37.574,24.772c3.62,0,6.895,2.011,8.547,5.249l1.119,2.194   l1.162-2.172c1.653-3.091,4.853-5.011,8.352-5.011c5.22,0,9.468,4.247,9.468,9.468c0,5.218-4.242,9.463-9.537,9.463   c-0.003,0-0.006,0-0.009,0l-2.462-0.07l1.123,1.981c0.805,1.42,1.231,3.03,1.231,4.656c0,5.22-4.247,9.467-9.468,9.467   c-5.22,0-9.468-4.247-9.468-9.467c0-1.624,0.424-3.231,1.227-4.65l1.107-1.956l-2.247,0.036l-0.144,0.008   c-5.292,0-9.598-4.306-9.598-9.598S32.282,24.772,37.574,24.772z"/><path d="M49.632,41.136l-1.114-1.978c-0.059-0.105-0.115-0.21-0.171-0.317l-1.138-2.196l-1.145,2.192   c-0.043,0.084-0.091,0.165-0.138,0.246l-1.158,2.016l2.262-0.033L49.632,41.136z"/><circle cx="43.633" cy="47.405" r="2.725"/><circle cx="41.319" cy="34.745" r="2.18"/><circle cx="52.879" cy="34.745" r="2.18"/></g><text x="0" y="115" fill="#000000" font-size="5px" font-weight="bold" font-family="'Helvetica Neue', Helvetica, Arial-Unicode, Arial, Sans-serif">Created by Oksana Latysheva</text><text x="0" y="120" fill="#000000" font-size="5px" font-weight="bold" font-family="'Helvetica Neue', Helvetica, Arial-Unicode, Arial, Sans-serif">from the Noun Project</text></svg>